<svg xmlns="http://www.w3.org/2000/svg" viewBox="0 0 359.95 81.82"><defs><style>.cls-1{fill:#83cf7a;}.cls-2{fill:#fff;}</style></defs><title>Ativo 22</title><g id="Camada_2" data-name="Camada 2"><g id="Camada_1-2" data-name="Camada 1"><path class="cls-1" d="M10.8,80.41a2.26,2.26,0,0,1-2.23-2.66l7.7-43.93H3.68a2.27,2.27,0,0,1-2.23-2.66l1.48-8.33A2.26,2.26,0,0,1,5.16,21h39.2a2.26,2.26,0,0,1,2.23,2.66L45.11,32a2.26,2.26,0,0,1-2.23,1.87H29.5L21.66,78.53a2.26,2.26,0,0,1-2.23,1.87Z"/><path class="cls-2" d="M44.36,22.38a.85.85,0,0,1,.83,1l-1.48,8.33a.85.85,0,0,1-.83.7H29a.85.85,0,0,0-.83.7L20.26,78.29a.85.85,0,0,1-.83.7H10.8A.85.85,0,0,1,10,78l7.82-44.6a.85.85,0,0,0-.83-1H3.68a.85.85,0,0,1-.83-1l1.48-8.33a.85.85,0,0,1,.83-.7h39.2m0-2.83H5.16a3.68,3.68,0,0,0-3.63,3L.06,30.91a3.68,3.68,0,0,0,3.63,4.33h10.9L7.17,77.5a3.68,3.68,0,0,0,3.63,4.32h8.63a3.68,3.68,0,0,0,3.63-3l7.63-43.54H42.88a3.68,3.68,0,0,0,3.63-3L48,23.87a3.68,3.68,0,0,0-3.63-4.33Z"/><path class="cls-1" d="M45,80.41a2.26,2.26,0,0,1-2.23-2.66l9.65-54.92A2.26,2.26,0,0,1,54.66,21H88a2.26,2.26,0,0,1,2.23,2.66L88.78,32a2.26,2.26,0,0,1-2.23,1.87H64L62.42,43H78.57A2.26,2.26,0,0,1,80.8,45.7L79.32,54a2.26,2.26,0,0,1-2.23,1.87H60.15L58.06,67.54H80.59a2.26,2.26,0,0,1,2.23,2.66l-1.48,8.33a2.26,2.26,0,0,1-2.23,1.87Z"/><path class="cls-2" d="M88,22.38a.85.85,0,0,1,.83,1l-1.48,8.33a.85.85,0,0,1-.83.7h-23a.85.85,0,0,0-.83.7L60.91,43.46a.85.85,0,0,0,.83,1H78.57a.85.85,0,0,1,.83,1l-1.48,8.33a.85.85,0,0,1-.83.7H59.67a.85.85,0,0,0-.83.7L56.55,68a.85.85,0,0,0,.83,1H80.59a.85.85,0,0,1,.83,1l-1.48,8.33a.85.85,0,0,1-.83.7H45a.85.85,0,0,1-.83-1l9.65-54.92a.85.85,0,0,1,.83-.7H88m0-2.83H54.66a3.68,3.68,0,0,0-3.63,3L41.38,77.5A3.68,3.68,0,0,0,45,81.82H79.11a3.68,3.68,0,0,0,3.63-3l1.48-8.33a3.68,3.68,0,0,0-3.63-4.33H59.76l1.57-8.81H77.09a3.68,3.68,0,0,0,3.63-3l1.48-8.33a3.68,3.68,0,0,0-3.63-4.33H64.11l1.11-6.38H86.55a3.68,3.68,0,0,0,3.63-3l1.48-8.33A3.68,3.68,0,0,0,88,19.54Z"/><path class="cls-1" d="M89.89,80.41a2.26,2.26,0,0,1-2.23-2.66l9.65-54.92A2.26,2.26,0,0,1,99.54,21h8.63a2.26,2.26,0,0,1,2.23,2.66l-7.7,43.93h19.22a2.26,2.26,0,0,1,2.23,2.66l-1.48,8.33a2.26,2.26,0,0,1-2.23,1.87Z"/><path class="cls-2" d="M108.17,22.38a.85.85,0,0,1,.83,1L101.19,68a.85.85,0,0,0,.83,1h19.9a.85.85,0,0,1,.83,1l-1.48,8.33a.85.85,0,0,1-.83.7H89.89a.85.85,0,0,1-.83-1l9.65-54.92a.85.85,0,0,1,.83-.7h8.63m0-2.83H99.54a3.68,3.68,0,0,0-3.63,3L86.26,77.5a3.68,3.68,0,0,0,3.63,4.32h30.55a3.68,3.68,0,0,0,3.63-3l1.48-8.33a3.68,3.68,0,0,0-3.63-4.33H104.39l7.41-42.27a3.68,3.68,0,0,0-3.63-4.32Z"/><path class="cls-1" d="M129.52,80.41a2.26,2.26,0,0,1-2.23-2.66l9.65-54.92A2.26,2.26,0,0,1,139.17,21h33.38a2.26,2.26,0,0,1,2.23,2.66L173.3,32a2.26,2.26,0,0,1-2.23,1.87H148.54L146.94,43h16.15a2.26,2.26,0,0,1,2.23,2.66L163.83,54a2.26,2.26,0,0,1-2.23,1.87H144.66l-2.08,11.64H165.1a2.26,2.26,0,0,1,2.23,2.66l-1.48,8.33a2.26,2.26,0,0,1-2.23,1.87Z"/><path class="cls-2" d="M172.54,22.38a.85.85,0,0,1,.83,1l-1.48,8.33a.85.85,0,0,1-.83.7h-23a.85.85,0,0,0-.83.7l-1.81,10.35a.85.85,0,0,0,.83,1h16.82a.85.85,0,0,1,.83,1l-1.48,8.33a.85.85,0,0,1-.83.7H144.18a.85.85,0,0,0-.83.7L141.06,68a.85.85,0,0,0,.83,1H165.1a.85.85,0,0,1,.83,1l-1.48,8.33a.85.85,0,0,1-.83.7H129.52a.85.85,0,0,1-.83-1l9.65-54.92a.85.85,0,0,1,.83-.7h33.38m0-2.83H139.17a3.68,3.68,0,0,0-3.63,3L125.89,77.5a3.68,3.68,0,0,0,3.63,4.32h34.11a3.68,3.68,0,0,0,3.63-3l1.48-8.33a3.68,3.68,0,0,0-3.63-4.33H144.27l1.57-8.81H161.6a3.68,3.68,0,0,0,3.63-3l1.48-8.33a3.68,3.68,0,0,0-3.63-4.33H148.62l1.11-6.38h21.33a3.68,3.68,0,0,0,3.63-3l1.48-8.33a3.68,3.68,0,0,0-3.63-4.33Z"/><path class="cls-1" d="M173.64,80.41a2.26,2.26,0,0,1-2.23-2.66l9.65-54.92A2.26,2.26,0,0,1,183.29,21h18.54c5.9,0,10.53,1.54,13.75,4.59s4.89,7.31,4.89,12.6A25,25,0,0,1,217.32,51a20.31,20.31,0,0,1-8.86,8.12A29.5,29.5,0,0,1,195.6,61.8h-8.19l-3,16.73a2.26,2.26,0,0,1-2.23,1.87Zm23.5-31.14a9.71,9.71,0,0,0,7.14-2.55c1.73-1.68,2.6-4.29,2.6-7.76,0-2.26-.49-3.94-1.45-5s-2.52-1.52-4.74-1.52h-8.11l-3,16.82Z"/><path class="cls-2" d="M201.83,22.38q8.33,0,12.78,4.21t4.45,11.57a23.52,23.52,0,0,1-3,12.13,18.83,18.83,0,0,1-8.25,7.56,28,28,0,0,1-12.25,2.55h-8.67a.85.85,0,0,0-.83.7L183,78.29a.85.85,0,0,1-.83.7h-8.55a.85.85,0,0,1-.83-1l9.65-54.92a.85.85,0,0,1,.83-.7h18.54m-12.9,28.31h8.21a11.15,11.15,0,0,0,8.13-3q3-3,3-8.78,0-4-1.82-5.94t-5.78-2h-8.59a.85.85,0,0,0-.83.7l-3.18,18a.85.85,0,0,0,.83,1m12.9-31.14H183.29a3.68,3.68,0,0,0-3.63,3L170,77.5a3.68,3.68,0,0,0,3.63,4.32h8.55a3.68,3.68,0,0,0,3.63-3l2.77-15.56h7a30.89,30.89,0,0,0,13.48-2.83,21.7,21.7,0,0,0,9.46-8.68,26.4,26.4,0,0,0,3.34-13.57c0-5.69-1.79-10.28-5.33-13.62s-8.45-5-14.73-5Zm-8.06,14.32h6.92c1.24,0,2.89.18,3.69,1.06s1.07,2.72,1.07,4c0,3.07-.73,5.34-2.18,6.74a8.37,8.37,0,0,1-6.15,2.15H191.3l2.47-14Z"/><path class="cls-1" d="M221.11,80.41a2.26,2.26,0,0,1-2.23-2.66l9.65-54.92A2.26,2.26,0,0,1,230.76,21h33.38a2.26,2.26,0,0,1,2.23,2.66L264.89,32a2.26,2.26,0,0,1-2.23,1.87H240.14L238.53,43h16.15a2.26,2.26,0,0,1,2.23,2.66L255.43,54a2.26,2.26,0,0,1-2.23,1.87H236.25l-2.08,11.64H256.7a2.26,2.26,0,0,1,2.23,2.66l-1.48,8.33a2.26,2.26,0,0,1-2.23,1.87ZM258.6,18.82a2.25,2.25,0,0,1-1.32-.43L249.77,13l-7.94,4.41a2.26,2.26,0,0,1-2.86-.56,2.25,2.25,0,0,1-.45-1.89l.93-4.42a2.26,2.26,0,0,1,.87-1.35l9.82-7.29a2.24,2.24,0,0,1,1.35-.45,2.28,2.28,0,0,1,1.62.68l8.06,8.21a2.26,2.26,0,0,1,.6,2L260.82,17A2.27,2.27,0,0,1,258.6,18.82Z"/><path class="cls-2" d="M251.48,2.83a.85.85,0,0,1,.61.25l8.06,8.21a.85.85,0,0,1,.23.76l-.94,4.66a.85.85,0,0,1-.83.68.84.84,0,0,1-.49-.16l-7.8-5.63a.85.85,0,0,0-.91-.05l-8.26,4.58a.85.85,0,0,1-1.24-.92l.93-4.42a.85.85,0,0,1,.32-.51L251,3a.85.85,0,0,1,.5-.17m12.66,19.54a.85.85,0,0,1,.83,1L263.5,31.7a.85.85,0,0,1-.83.7h-23a.85.85,0,0,0-.83.7L237,43.46a.85.85,0,0,0,.83,1h16.82a.85.85,0,0,1,.83,1L254,53.78a.85.85,0,0,1-.83.7H235.78a.85.85,0,0,0-.83.7L232.66,68a.85.85,0,0,0,.83,1H256.7a.85.85,0,0,1,.83,1l-1.48,8.33a.85.85,0,0,1-.83.7H221.11a.85.85,0,0,1-.83-1l9.65-54.92a.85.85,0,0,1,.83-.7h33.38M251.48,0a3.66,3.66,0,0,0-2.19.73L239.46,8a3.68,3.68,0,0,0-1.41,2.2l-.93,4.42a3.68,3.68,0,0,0,5.39,4l7.16-4,6.78,4.89H230.76a3.68,3.68,0,0,0-3.63,3L217.49,77.5a3.68,3.68,0,0,0,3.63,4.32h34.11a3.68,3.68,0,0,0,3.63-3l1.48-8.33a3.68,3.68,0,0,0-3.63-4.33H235.87l1.57-8.81H253.2a3.68,3.68,0,0,0,3.63-3l1.48-8.33a3.68,3.68,0,0,0-3.63-4.33H240.22l1.11-6.38h21.33a3.68,3.68,0,0,0,3.63-3l1.48-8.33a3.68,3.68,0,0,0-3.63-4.33h-3.4a3.68,3.68,0,0,0,1.46-2.26l.94-4.66a3.68,3.68,0,0,0-1-3.31L254.11,1.1A3.7,3.7,0,0,0,251.48,0Z"/><path class="cls-1" d="M296.89,80.41a2.27,2.27,0,0,1-2.14-1.51l-6.91-19.52h-7.68l-3.39,19.16a2.26,2.26,0,0,1-2.23,1.87H266a2.26,2.26,0,0,1-2.23-2.66l9.65-54.92A2.26,2.26,0,0,1,275.65,21h18c5.9,0,10.59,1.28,14,3.8s5.26,6.69,5.26,12.09c0,7.85-4.09,14.24-12.15,19L308,77.41a2.26,2.26,0,0,1-2.14,3Zm-8.12-33.57a10.88,10.88,0,0,0,7.37-2.45,8.09,8.09,0,0,0,2.78-6.56c0-2.5-.72-5.38-6.35-5.38h-7.63l-2.57,14.39Z"/><path class="cls-2" d="M293.62,22.38q8.41,0,13.1,3.52t4.69,11q0,11.2-11.84,18a.85.85,0,0,0-.39,1l7.48,22a.85.85,0,0,1-.8,1.12h-9a.85.85,0,0,1-.8-.56l-7-19.9a.85.85,0,0,0-.8-.56h-8.56a.85.85,0,0,0-.83.7l-3.47,19.63a.85.85,0,0,1-.83.7H266a.85.85,0,0,1-.83-1l9.65-54.92a.85.85,0,0,1,.83-.7h18M281.69,48.26h7.08a12.34,12.34,0,0,0,8.29-2.79,9.51,9.51,0,0,0,3.28-7.64q0-6.79-7.76-6.79h-8.11a.85.85,0,0,0-.83.7l-2.77,15.53a.85.85,0,0,0,.83,1m11.93-28.71h-18a3.68,3.68,0,0,0-3.63,3L262.37,77.5A3.68,3.68,0,0,0,266,81.82h8.55a3.68,3.68,0,0,0,3.63-3l3.18-18h5.49l6.57,18.57a3.69,3.69,0,0,0,3.47,2.45h9A3.68,3.68,0,0,0,309.35,77l-7-20.48c7.87-5,11.86-11.57,11.86-19.63,0-5.88-2-10.33-5.82-13.23-3.61-2.71-8.59-4.09-14.8-4.09Zm-7.49,14.32h6.44c4.55,0,4.93,1.87,4.93,4a6.67,6.67,0,0,1-2.28,5.49,9.52,9.52,0,0,1-6.45,2.11h-4.7l2.06-11.56Z"/><path class="cls-1" d="M347.23,80.41A2.26,2.26,0,0,1,345,78.5l-1.88-11.76H327.56l-6.33,12.43a2.26,2.26,0,0,1-2,1.24h-8.84a2.27,2.27,0,0,1-2-3.3l28.4-54.92a2.26,2.26,0,0,1,2-1.22h8.47a2.26,2.26,0,0,1,2.23,1.9l9,54.92a2.26,2.26,0,0,1-2.23,2.63Zm-6.32-26.53-1.47-10.41-5.13,10.41Z"/><path class="cls-2" d="M347.25,22.38a.85.85,0,0,1,.84.71l9,54.92a.85.85,0,0,1-.84,1h-9a.85.85,0,0,1-.84-.71l-2-12.24a.85.85,0,0,0-.84-.71H327.22a.85.85,0,0,0-.76.46L320,78.52a.85.85,0,0,1-.76.46h-8.84a.85.85,0,0,1-.75-1.24L338,22.83a.85.85,0,0,1,.75-.46h8.47M333.4,55.29h8.18a.85.85,0,0,0,.84-1l-1.82-12.89a.84.84,0,0,0-.85-.73.83.83,0,0,0-.75.47l-6.35,12.89a.85.85,0,0,0,.76,1.22m13.85-35.75h-8.47a3.67,3.67,0,0,0-3.27,2l-28.4,54.92a3.68,3.68,0,0,0,3.27,5.37h8.84a3.67,3.67,0,0,0,3.28-2l5.93-11.66h13.47l1.69,10.57a3.67,3.67,0,0,0,3.64,3.1h9a3.68,3.68,0,0,0,3.63-4.28l-9-54.92a3.67,3.67,0,0,0-3.63-3.09ZM336.59,52.46l2.09-4.25.6,4.25Z"/></g></g></svg>