<svg xmlns="http://www.w3.org/2000/svg" viewBox="0 0 486 281"><defs><style>.cls-1{fill:#f3f3f3;}</style></defs><title>Ativo 27</title><g id="Camada_2" data-name="Camada 2"><g id="Camada_1-2" data-name="Camada 1"><path class="cls-1" d="M248.14,166.92c-1.38-1-3.28-.23-4.76,0l-2.62.35c-.44.06-2-4.44-2.18-5a31.82,31.82,0,0,1-1.46-5.59,29.39,29.39,0,0,1-.35-5.6c0-.54.29-5.11.68-5.21,0,0,3.17-.56,4.23-.92,2.25-.79,4-1.42,4.24-4.21a13.94,13.94,0,0,0-.18-3,37.93,37.93,0,0,0-1.07-5.37,8.79,8.79,0,0,0-1.55-3.62,1.57,1.57,0,0,0-.78-.52c-3.47-1-8.07,1.52-10.47,3.85-7.75,7.57-6.65,20.1-4.17,29.69,2.21,8.51,7.34,23.65,18.81,21.59,1.44-.24,3.32-.76,4.22-2,1.44-2.19.64-5.16,0-7.43C250.26,172.15,249.67,168,248.14,166.92Z"/><path class="cls-1" d="M467.93,0H18.07A18.07,18.07,0,0,0,0,18.07V262.93A18.07,18.07,0,0,0,18.07,281H467.93A18.07,18.07,0,0,0,486,262.93V18.07A18.07,18.07,0,0,0,467.93,0ZM283.23,117.85a15.61,15.61,0,0,1-.16,1.66c-.79,4.71-2,9.41-2.3,14.15a76,76,0,0,0,.14,15.93,42.72,42.72,0,0,1-3,22.77c-5.47,13.23-15.44,21.41-29.22,24.49-8.84,2-17.43.19-25.61-3.93-13.43-6.76-20.72-17.93-23.79-32.25-1.74-8.07.82-15.23,5.12-21.87,4.12-6.38,9.26-11.81,16.25-15.1,10.35-4.94,19-12,26.93-20.24,5-5.15,11-7,18-4.55,1.52.53,2.51.2,3.19-1.27,1.43-3.14,2.87-6.28,4.38-9.39a17.94,17.94,0,0,1,2.15-3.54,3.34,3.34,0,0,1,2.27-1.33,3.19,3.19,0,0,1,2.35,1.6,3,3,0,0,1-1.16,2.5c-3,2.18-3.16,5.75-4.6,8.67a28.18,28.18,0,0,0-1.28,4.07C282.16,102.78,283.72,109.73,283.23,117.85Z"/></g></g></svg>