<svg xmlns="http://www.w3.org/2000/svg" viewBox="0 0 156 156"><defs><style>.cls-1{fill:#333;}</style></defs><title>Ativo 15</title><g id="Camada_2" data-name="Camada 2"><g id="Camada_1-2" data-name="Camada 1"><path class="cls-1" d="M49.88,104.15h5.93a9.93,9.93,0,0,1,19.36,0H91.28a9.93,9.93,0,0,1,19.36.05,2.2,2.2,0,0,1,.48-.05h5.54V92H49.88Z"/><path class="cls-1" d="M78,0a78,78,0,1,0,78,78A78,78,0,0,0,78,0ZM35,56.31a2.2,2.2,0,0,1,2.2-2.2h19a2.2,2.2,0,0,1,0,4.4h-19A2.2,2.2,0,0,1,35,56.31Zm3.52,9.57a2.2,2.2,0,0,1,2.2-2.2H56.18a2.2,2.2,0,0,1,0,4.4H40.71A2.2,2.2,0,0,1,38.51,65.88ZM42,75.45a2.2,2.2,0,0,1,2.2-2.2h12a2.2,2.2,0,0,1,0,4.4h-12A2.2,2.2,0,0,1,42,75.45Zm79,30.9a2.2,2.2,0,0,1-2.2,2.2h-7.74a2.2,2.2,0,0,1-.48-.05,9.93,9.93,0,0,1-19.36.05H75.16a9.93,9.93,0,0,1-19.36,0H47.68a2.2,2.2,0,0,1-2.2-2.2v-22a2.2,2.2,0,1,1,4.4,0v3.26H85.7V44.14H49.88V47.4a2.2,2.2,0,1,1-4.4,0V41.95a2.2,2.2,0,0,1,2.18-2.2H87.9a2.2,2.2,0,0,1,2.2,2.2V52.17h10.8a7,7,0,0,1,6.51,4.56l4.35,11.82,5.53,2.85A6.93,6.93,0,0,1,121,77.58Z"/><path class="cls-1" d="M65.47,100.81a5.54,5.54,0,1,0,0,11.09h0a5.55,5.55,0,0,0,0-11.09Z"/><path class="cls-1" d="M100.93,100.81a5.54,5.54,0,1,0,0,11.09h0a5.55,5.55,0,1,0,0-11.09Z"/><path class="cls-1" d="M115.29,75.3,109,72.07a2.2,2.2,0,0,1-1.06-1.2l-4.64-12.62a2.57,2.57,0,0,0-2.4-1.68H90.1v31h26.58v-10A2.55,2.55,0,0,0,115.29,75.3Z"/></g></g></svg>