<svg xmlns="http://www.w3.org/2000/svg" viewBox="0 0 100 100"><defs><style>.cls-1{fill:#fff;}</style></defs><title>Ativo 21</title><g id="Camada_2" data-name="Camada 2"><g id="Camada_1-2" data-name="Camada 1"><path class="cls-1" d="M50,7A43,43,0,1,1,7,50,43,43,0,0,1,50,7m0-7a50,50,0,1,0,50,50A50,50,0,0,0,50,0Z"/><path class="cls-1" d="M55.75,57.27c0,4-.08,8,0,12A5.67,5.67,0,0,1,49,74.91a7.87,7.87,0,0,1-1.51-.4,4.67,4.67,0,0,1-3.16-4.35V45.33A5.42,5.42,0,0,1,48,40a5.83,5.83,0,0,1,6.75,1.93,4.9,4.9,0,0,1,1,3.06V57.27Z"/><path class="cls-1" d="M56.13,31.16A6.13,6.13,0,1,1,50,25h.1A6.1,6.1,0,0,1,56.13,31.16Z"/></g></g></svg>