<svg xmlns="http://www.w3.org/2000/svg" viewBox="0 0 512.85 335.11"><defs><style>.cls-1{fill:#83cf7a;}.cls-2{fill:#fff;}</style></defs><title>Ativo 31</title><g id="Camada_2" data-name="Camada 2"><g id="Camada_1-2" data-name="Camada 1"><rect class="cls-1" x="9.92" y="91.56" width="493" height="152" transform="translate(-45.43 115.48) rotate(-23.37)"/><path class="cls-2" d="M74.4,203.38l13.53-5.85L141,232.19l-21-48.54,13.75-5.94,32.49,75.18L155,257.76l-56.65-36.7,22.28,51.55-13.75,5.94Z"/><path class="cls-2" d="M205.58,231.89a37.46,37.46,0,0,1-19.15-8,50.31,50.31,0,0,1-17.68-40.92A37.47,37.47,0,0,1,176,163.48,43.17,43.17,0,0,1,214.14,147a37.5,37.5,0,0,1,19.15,8A50.31,50.31,0,0,1,251,196a37.48,37.48,0,0,1-7.27,19.46,43.17,43.17,0,0,1-38.13,16.48Zm29.16-31q2.79-9.62-2.22-21.22t-13.93-16.16q-8.92-4.56-19.87.18T185,178q-2.79,9.62,2.22,21.22t13.93,16.16Q210,220,221,215.22T234.74,200.87Z"/><path class="cls-2" d="M310.57,101.31,316.32,188l-13,5.62L244.09,130l13.85-6,43.24,47-4.47-63.71Z"/><path class="cls-2" d="M372.91,159.57a37.47,37.47,0,0,1-19.15-8,46.22,46.22,0,0,1-13.62-18.39,46.21,46.21,0,0,1-4.06-22.52,37.47,37.47,0,0,1,7.27-19.46,43.18,43.18,0,0,1,38.13-16.48,37.5,37.5,0,0,1,19.15,8,46.23,46.23,0,0,1,13.62,18.39,46.21,46.21,0,0,1,4.06,22.52A37.48,37.48,0,0,1,411,143.09a43.17,43.17,0,0,1-38.13,16.48Zm29.16-31q2.79-9.62-2.22-21.22T385.92,91.18Q377,86.62,366,91.35T352.3,105.71q-2.79,9.62,2.22,21.22t13.93,16.16q8.92,4.56,19.87-.18T402.07,128.55Z"/></g></g></svg>