<svg xmlns="http://www.w3.org/2000/svg" viewBox="0 0 265.29 400"><defs><style>.cls-1{fill:#83cf7a;}</style></defs><title>Ativo 29</title><g id="Camada_2" data-name="Camada 2"><g id="Camada_1-2" data-name="Camada 1"><path class="cls-1" d="M260.19,233.79c-6.72-25.15-18.65-47-37.59-65.71-12.37-12.19-22.64-26.79-32.24-41.41C181.81,113.56,175.45,99,168.1,85a51.49,51.49,0,0,0-2.88-4.66c-15-22.21-32.94-37.3-62.38-25.51C101.07,50.14,99,46,98.07,41.63,96,31.1,89.39,21.37,92.76,9.74c.78-2.69-.08-7.6-2-8.86-2.17-1.45-6.9-1-9.37.52-2,1.25-3.18,5.27-3.28,8A59.11,59.11,0,0,0,79.6,23c2.26,11.15,4.77,22.27,7.31,33.35,1.18,5.2-.77,8-5.8,9.71C57.92,73.65,45.71,90.59,43,114c-4.26,37.33-12.81,73.24-30,106.86C1.23,243.51-1.38,268,.6,293c2,26,9.68,49.86,30.36,67.51,36.69,31.35,78.12,46,126.8,36.83,29.66-5.58,55.71-18.11,74.91-40.95C262.61,320.74,272.36,279.37,260.19,233.79Z"/></g></g></svg>