<svg xmlns="http://www.w3.org/2000/svg" viewBox="0 0 340.18 50"><defs><style>.cls-1{fill:#fff;}</style></defs><title>Ativo 18</title><g id="Camada_2" data-name="Camada 2"><g id="Camada_1-2" data-name="Camada 1"><path class="cls-1" d="M220.15,20.73a4.62,4.62,0,0,0-5.94,2.39,5.14,5.14,0,0,0-.12,4.07,4.82,4.82,0,0,0,9.07-1C223.67,24.12,222.1,21.59,220.15,20.73Z"/><path class="cls-1" d="M223.42,13.06c-3.78-.13-7.55,0-11.33.14-4.86.13-5.82,5.63-5.71,9.9,0,.7,0,1.42,0,2.15-.11,3.37,0,9.31,3.19,11.05a8.44,8.44,0,0,0,4.36.69c1.75-.07,3.49-.07,5.25,0a25.48,25.48,0,0,0,7.28-.35c3.35-.8,3.92-2.46,4.16-5.44.1-1.3,0-2.87,0-4.48,0-3.51.8-9.71-2.25-12.33C227,13.25,225.1,13.12,223.42,13.06Zm-1,18.47c-4,2.86-9.89.51-11.24-4.06a6.8,6.8,0,0,1-.21-1c-.35-2.35.63-6.14,3-7.59,4.65-2.89,8.5-.77,10.16,1.2a8.63,8.63,0,0,1,1.78,3.94A8,8,0,0,1,222.45,31.54Zm4.27-12.33a1.77,1.77,0,0,1-1.85-2.63c.39-1,1.37-1.23,2.53-.6A1.88,1.88,0,0,1,226.72,19.2Z"/><path class="cls-1" d="M218.45,0a25,25,0,1,0,25,25A25,25,0,0,0,218.45,0Zm14.66,25.09c0,1.89-.08,3.78,0,5.68.1,3.43-1.14,6.74-4.61,8.09-4.2,1.64-9.32.74-13.73.74a20,20,0,0,1-5.7-.39,6.84,6.84,0,0,1-3.27-2.29,5,5,0,0,1-1-1.58c-1.13-2.89-.91-5.55-1-8.59-.07-1.74,0-3.48,0-5.22a18.13,18.13,0,0,1,.88-6.76c.88-2.28,3.92-4.07,6.27-4.22,4.82-.32,9.9-.73,14.69,0a9.16,9.16,0,0,1,5.24,2.34c1.77,1.84,2.2,4.47,2.28,7.11C233.19,21.79,233.09,23.55,233.12,25.09Z"/><path class="cls-1" d="M121.73,0a25,25,0,1,0,25,25A25,25,0,0,0,121.73,0Zm13.66,16.12A13.36,13.36,0,0,1,134,17.66c-1.11,1.1-1.17,1.22-1.17,2.15a20.72,20.72,0,0,1-1.35,6,17.47,17.47,0,0,1-6.62,7.8,16.78,16.78,0,0,1-13,1.49A15.23,15.23,0,0,1,108,33.36a5.86,5.86,0,0,1,1.63-.16,11.13,11.13,0,0,0,5.33-1.49l1.07-.64-1.23-.42a6,6,0,0,1-3.72-3.3c-.12-.42-.08-.44,1-.44l1.15,0-1-.46a6.43,6.43,0,0,1-2.72-2.57,7.21,7.21,0,0,1-.72-2.69,2.32,2.32,0,0,1,.93.22c1.37.5,1.55.38.75-.46a5.81,5.81,0,0,1-1.23-6l.34-1,1.31,1.31A16.16,16.16,0,0,0,120.39,20l1,.12-.06-1a5.76,5.76,0,0,1,3.88-5.79,6.79,6.79,0,0,1,3.48-.08,8.1,8.1,0,0,1,1.69.88l1,.67,1.07-.34a10.9,10.9,0,0,0,1.75-.68c.34-.18.64-.28.64-.22a5.87,5.87,0,0,1-1.35,2.15c-.84.9-.6,1,1.09.38C135.56,15.73,135.58,15.73,135.38,16.12Z"/><path class="cls-1" d="M25,0A25,25,0,1,0,50,25,25,25,0,0,0,25,0Zm6.25,16.57h-2.6c-1.95,0-2.08.66-2.08,1.88v1.25h4.25l-.5,4.69H26.56V38.44H21.88V24.38H18.75V19.69h3.13V17.33c-.48-3.91,5.74-5.45,5.74-5.45h3.63Z"/><path class="cls-1" d="M315.18,0a25,25,0,1,0,25,25A25,25,0,0,0,315.18,0Zm3.65,27.7a12.35,12.35,0,0,1-1.42,3.38,5.74,5.74,0,0,1-2.31,2.54,12.84,12.84,0,0,1-2.63,1.25,12.65,12.65,0,0,1-3,.26,8.65,8.65,0,0,1-3.13-.43,11.61,11.61,0,0,1-5.19-3.34,10.26,10.26,0,0,1-2.18-5.44v-.74c.54-1.73.75-3.78,1.65-5.39a6.74,6.74,0,0,1,1.91-2.48c.45-.31.95-.65,1.39-.93a6.75,6.75,0,0,1,1.2-.64c3.45-1.43,7.91-1.2,10.76,1.45.08.08.19.21.28.3l-.58.53c-.6.77-1.5,1.56-2,2.27l-.5-.45a5,5,0,0,0-2.48-1.15,6.46,6.46,0,0,0-3.95.59A6.71,6.71,0,0,0,303,24.81a7.44,7.44,0,0,0,1.89,4.92,6.28,6.28,0,0,0,3.63,1.81,13.3,13.3,0,0,0,2.43-.17,5.72,5.72,0,0,0,4.3-4.24l-.95,0c-.66-.05-1.72,0-2.55,0a15.16,15.16,0,0,1-2.32-.05s.06-2.67,0-3.46c0,0,2.7.05,3.94.09.89,0,1.78.15,2.67.12a20.91,20.91,0,0,0,3-.14A35.93,35.93,0,0,1,318.83,27.7Zm9.5-1.36c0,.84,0,2.24-.08,3.05-.74-.14-1.62.07-2.31,0l-.47.05c0-1,0-2-.06-3-.75,0-2.89,0-2.89,0,0-.79,0-1.94,0-2.79a22.74,22.74,0,0,0,2.93,0l.07-.26c0-.76,0-1.77.06-2.63a17.48,17.48,0,0,0,2.78-.09c0,1,0,2.06,0,3,0,0,2,0,2.82,0,0,1,0,1.67,0,2.67C330.38,26.31,328.32,26.34,328.32,26.34Z"/></g></g></svg>