<svg xmlns="http://www.w3.org/2000/svg" viewBox="0 0 154.38 208.49"><defs><style>.cls-1{fill:#333;}</style></defs><title>Ativo 25</title><g id="Camada_2" data-name="Camada 2"><g id="Camada_1-2" data-name="Camada 1"><path class="cls-1" d="M144.45,162.35A77.94,77.94,0,0,0,150,120.8c-1.34-9.52-1-19.4-.26-29.06.64-8.64,2.75-17.21,4.2-25.81a28.51,28.51,0,0,0,.3-3c.89-14.8-2-27.48-18.87-32.19.81-2.67,1.27-5.2,2.34-7.42,2.62-5.33,3-11.84,8.39-15.82,1.25-.92,2.52-3.37,2.12-4.56-.46-1.37-2.7-2.75-4.3-2.92-1.31-.13-3.17,1.25-4.13,2.42a32.73,32.73,0,0,0-3.93,6.46c-2.75,5.67-5.39,11.4-8,17.13-1.23,2.68-3,3.28-5.82,2.32-12.76-4.45-23.82-1.1-32.91,8.3C74.7,51.63,58.87,64.56,40,73.56c-12.75,6-22.13,15.91-29.65,27.56C2.5,113.25-2.16,126.31,1,141c5.61,26.13,18.91,46.5,43.41,58.83C59.34,207.38,75,210.62,91.14,207,116.28,201.42,134.48,186.5,144.45,162.35Zm-57.2,20C66.33,186.15,57,158.52,52.93,143c-4.53-17.49-6.53-40.34,7.6-54.16,4.38-4.24,12.77-8.85,19.1-7a2.86,2.86,0,0,1,1.42.95c1.6,1.65,2.35,4.8,2.83,6.6a69.21,69.21,0,0,1,2,9.8,25.43,25.43,0,0,1,.34,5.55c-.45,5.09-3.63,6.25-7.73,7.69-1.94.67-7.73,1.68-7.73,1.68-.71.18-1.21,8.52-1.24,9.5a53.62,53.62,0,0,0,.64,10.22A58,58,0,0,0,72.78,144c.29.94,3.17,9.15,4,9l4.78-.64c2.71-.36,6.18-1.72,8.69.05,2.78,2,3.87,9.54,4.78,12.67,1.12,4.15,2.58,9.55-.05,13.56C93.31,181,89.87,182,87.25,182.38Z"/></g></g></svg>