<svg xmlns="http://www.w3.org/2000/svg" viewBox="0 0 354.28 76.15"><defs><style>.cls-1{fill:#83cf7a;}</style></defs><title>Ativo 11</title><g id="Camada_2" data-name="Camada 2"><g id="Camada_1-2" data-name="Camada 1"><path class="cls-1" d="M14.11,29.57H.85a.85.85,0,0,1-.83-1l1.48-8.33a.85.85,0,0,1,.83-.7h39.2a.85.85,0,0,1,.83,1l-1.48,8.33a.85.85,0,0,1-.83.7H26.19a.85.85,0,0,0-.83.7L17.43,75.45a.85.85,0,0,1-.83.7H8a.85.85,0,0,1-.83-1l7.82-44.6A.85.85,0,0,0,14.11,29.57Z"/><path class="cls-1" d="M51.82,19.54H85.2a.85.85,0,0,1,.83,1l-1.48,8.33a.85.85,0,0,1-.83.7h-23a.85.85,0,0,0-.83.7L58.08,40.63a.85.85,0,0,0,.83,1H75.74a.85.85,0,0,1,.83,1l-1.48,8.33a.85.85,0,0,1-.83.7H56.83a.85.85,0,0,0-.83.7L53.71,65.13a.85.85,0,0,0,.83,1H77.76a.85.85,0,0,1,.83,1l-1.48,8.33a.85.85,0,0,1-.83.7H42.17a.85.85,0,0,1-.83-1L51,20.24A.85.85,0,0,1,51.82,19.54Z"/><path class="cls-1" d="M96.71,19.54h8.63a.85.85,0,0,1,.83,1l-7.82,44.6a.85.85,0,0,0,.83,1h19.9a.85.85,0,0,1,.83,1l-1.48,8.33a.85.85,0,0,1-.83.7H87.06a.85.85,0,0,1-.83-1l9.65-54.92A.85.85,0,0,1,96.71,19.54Z"/><path class="cls-1" d="M136.33,19.54h33.38a.85.85,0,0,1,.83,1l-1.48,8.33a.85.85,0,0,1-.83.7h-23a.85.85,0,0,0-.83.7l-1.81,10.35a.85.85,0,0,0,.83,1h16.82a.85.85,0,0,1,.83,1l-1.48,8.33a.85.85,0,0,1-.83.7H141.35a.85.85,0,0,0-.83.7l-2.28,12.78a.85.85,0,0,0,.83,1h23.21a.85.85,0,0,1,.83,1l-1.48,8.33a.85.85,0,0,1-.83.7H126.68a.85.85,0,0,1-.83-1l9.65-54.92A.85.85,0,0,1,136.33,19.54Z"/><path class="cls-1" d="M179.62,20.24a.85.85,0,0,1,.83-.7H199q8.33,0,12.78,4.21t4.45,11.57a23.52,23.52,0,0,1-3,12.13A18.83,18.83,0,0,1,205,55a28,28,0,0,1-12.25,2.55h-8.67a.85.85,0,0,0-.83.7l-3.07,17.2a.85.85,0,0,1-.83.7h-8.55a.85.85,0,0,1-.83-1ZM194.3,47.85a11.15,11.15,0,0,0,8.13-3q3-3,3-8.78,0-4-1.82-5.94t-5.78-2h-8.59a.85.85,0,0,0-.83.7l-3.18,18a.85.85,0,0,0,.83,1Z"/><path class="cls-1" d="M227.93,19.54h33.38a.85.85,0,0,1,.83,1l-1.48,8.33a.85.85,0,0,1-.83.7h-23a.85.85,0,0,0-.83.7l-1.81,10.36a.85.85,0,0,0,.83,1h16.82a.85.85,0,0,1,.83,1l-1.48,8.33a.85.85,0,0,1-.83.7H232.94a.85.85,0,0,0-.83.7l-2.28,12.78a.85.85,0,0,0,.83,1h23.21a.85.85,0,0,1,.83,1l-1.48,8.33a.85.85,0,0,1-.83.7H218.28a.85.85,0,0,1-.83-1l9.65-54.92A.85.85,0,0,1,227.93,19.54ZM238.31,7.46,248.14.17a.85.85,0,0,1,1.11.09l8.06,8.21a.85.85,0,0,1,.23.76l-.94,4.66a.85.85,0,0,1-1.33.52l-7.8-5.63a.85.85,0,0,0-.91-.05L238.3,13.3a.85.85,0,0,1-1.24-.92L238,8A.85.85,0,0,1,238.31,7.46Z"/><path class="cls-1" d="M272,20.24a.85.85,0,0,1,.83-.7h18q8.41,0,13.1,3.52t4.69,11q0,11.2-11.84,18a.85.85,0,0,0-.39,1l7.48,22a.85.85,0,0,1-.8,1.12h-9a.85.85,0,0,1-.8-.56l-7-19.9a.85.85,0,0,0-.8-.56h-8.56a.85.85,0,0,0-.83.7l-3.47,19.63a.85.85,0,0,1-.83.7h-8.55a.85.85,0,0,1-.83-1Zm14,25.18a12.34,12.34,0,0,0,8.29-2.79A9.51,9.51,0,0,0,297.5,35q0-6.79-7.76-6.79h-8.11a.85.85,0,0,0-.83.7L278,44.42a.85.85,0,0,0,.83,1Z"/><path class="cls-1" d="M335.94,19.54h8.47a.85.85,0,0,1,.84.71l9,54.92a.85.85,0,0,1-.84,1h-9a.85.85,0,0,1-.84-.71l-2-12.24a.85.85,0,0,0-.84-.71H324.38a.85.85,0,0,0-.76.46l-6.48,12.74a.85.85,0,0,1-.76.46h-8.84a.85.85,0,0,1-.75-1.24L335.19,20A.85.85,0,0,1,335.94,19.54Zm3.63,31.95L337.75,38.6a.85.85,0,0,0-1.6-.26L329.8,51.23a.85.85,0,0,0,.76,1.22h8.18A.85.85,0,0,0,339.58,51.49Z"/></g></g></svg>