<svg xmlns="http://www.w3.org/2000/svg" viewBox="0 0 157 157"><defs><style>.cls-1{fill:#333;}</style></defs><title>Ativo 19</title><g id="Camada_2" data-name="Camada 2"><g id="Camada_1-2" data-name="Camada 1"><path class="cls-1" d="M78.5,0A78.5,78.5,0,1,0,157,78.5,78.5,78.5,0,0,0,78.5,0Zm38.44,79,.53,2.38a.47.47,0,0,1-.33.56L102.21,85.9a.46.46,0,0,1-.56-.35l-.53-2.38a.47.47,0,0,1,.33-.56l14.93-3.92A.46.46,0,0,1,116.94,79Zm-8.46-40.22,2.11-.67a.46.46,0,0,1,.58.32l4.33,16.1a.47.47,0,0,1-.3.57l-2.11.67a.46.46,0,0,1-.58-.32l-4.33-16.1A.47.47,0,0,1,108.48,38.83Zm-7.67,5.32,2,1a.47.47,0,0,1,.22.61L96.51,61a.45.45,0,0,1-.62.23l-2-1a.47.47,0,0,1-.22-.61l6.52-15.19A.45.45,0,0,1,100.81,44.15ZM80.19,28.87a.46.46,0,0,1,.46-.47H96a.46.46,0,0,1,.46.47v2.45a.46.46,0,0,1-.46.47H80.65a.46.46,0,0,1-.46-.47ZM50.1,88.76l-1.25,16.72a.46.46,0,0,1-.5.43l-2.19-.19a.46.46,0,0,1-.42-.5L47,88.49a.46.46,0,0,1,.5-.43l2.19.19A.46.46,0,0,1,50.1,88.76ZM45.62,32.81a.46.46,0,0,1,.5-.42l2.18.23a.46.46,0,0,1,.41.51l-1.47,16.7a.46.46,0,0,1-.5.42L44.55,50a.46.46,0,0,1-.41-.51ZM33.51,49.75l1.68-1.57a.45.45,0,0,1,.67.05l9.41,11.91a.47.47,0,0,1,0,.64l-1.68,1.57a.45.45,0,0,1-.67-.05L33.46,50.39A.47.47,0,0,1,33.51,49.75Zm-11,24.38-.53-2.38a.47.47,0,0,1,.33-.56L37.2,67.26a.46.46,0,0,1,.56.35L38.29,70a.47.47,0,0,1-.33.56L23,74.48A.46.46,0,0,1,22.47,74.13ZM53,119.6a.46.46,0,0,1-.46.47H37.18a.46.46,0,0,1-.46-.47v-2.45a.46.46,0,0,1,.46-.47H52.53a.46.46,0,0,1,.46.47ZM58.57,68l1.55-1.74a.45.45,0,0,1,.67,0L71.84,77.86a.47.47,0,0,1,0,.64L70.3,80.23a.45.45,0,0,1-.67,0L58.58,68.6A.47.47,0,0,1,58.57,68Zm19.15,34.32-14.79,4.43a.46.46,0,0,1-.57-.33L61.77,104a.47.47,0,0,1,.31-.56L76.87,99a.46.46,0,0,1,.57.33l.59,2.36A.47.47,0,0,1,77.72,102.28Zm.37-51.61L68.06,38a.47.47,0,0,1,0-.64l1.68-1.58a.45.45,0,0,1,.67.05l10,12.7a.47.47,0,0,1,0,.64l-1.68,1.58A.45.45,0,0,1,78.1,50.67ZM83.6,84,79.27,67.94a.47.47,0,0,1,.3-.57l2.11-.67a.46.46,0,0,1,.58.32l4.33,16.09a.47.47,0,0,1-.3.57l-2.11.67A.46.46,0,0,1,83.6,84Zm16,39.6-1.55,1.74a.45.45,0,0,1-.67,0L86.37,113.74a.47.47,0,0,1,0-.64l1.55-1.74a.45.45,0,0,1,.67,0L99.63,123A.47.47,0,0,1,99.64,123.63Zm4.75-17.71L90.8,98.13a.47.47,0,0,1-.19-.61l1-2.16a.45.45,0,0,1,.64-.2l13.58,7.8a.47.47,0,0,1,.19.61l-1,2.16A.45.45,0,0,1,104.39,105.93Zm14.48,8.58-12.08,10.36a.45.45,0,0,1-.66-.08l-1.38-1.91a.47.47,0,0,1,.07-.63l12.08-10.36a.45.45,0,0,1,.66.08l1.38,1.91A.47.47,0,0,1,118.87,114.5ZM127.8,103l-2.11.67a.46.46,0,0,1-.58-.32l-4.34-16.1a.47.47,0,0,1,.3-.57l2.11-.67a.46.46,0,0,1,.58.32l4.34,16.1A.47.47,0,0,1,127.8,103Zm6.56-29.85a.45.45,0,0,1-.67,0L122.49,61.73a.47.47,0,0,1,0-.64L124,59.33a.45.45,0,0,1,.67,0l11.21,11.46a.47.47,0,0,1,0,.64Z"/></g></g></svg>